<svg width="341" height="353" viewBox="0 0 341 353" fill="none" xmlns="http://www.w3.org/2000/svg">
<path d="M42.9678 77.1614L54.032 99.5762L78.7743 103.193L60.8711 120.63L65.0962 145.265L42.9678 133.628L20.8394 145.265L25.0646 120.63L7.16138 103.193L31.9036 99.5762L42.9678 77.1614Z" stroke="white" stroke-width="6.44516" stroke-linecap="round" stroke-linejoin="round"/>
<path d="M328.621 86.5067C326.792 84.677 324.62 83.2256 322.23 82.2353C319.841 81.245 317.279 80.7354 314.692 80.7354C312.105 80.7354 309.543 81.245 307.153 82.2353C304.763 83.2256 302.592 84.677 300.763 86.5067L296.968 90.3022L293.172 86.5067C289.478 82.8126 284.468 80.7373 279.244 80.7373C274.019 80.7373 269.009 82.8126 265.315 86.5067C261.621 90.2009 259.545 95.2112 259.545 100.435C259.545 105.66 261.621 110.67 265.315 114.364L269.11 118.16L296.968 146.017L324.825 118.16L328.621 114.364C330.45 112.535 331.902 110.364 332.892 107.974C333.882 105.584 334.392 103.022 334.392 100.435C334.392 97.8485 333.882 95.2868 332.892 92.8969C331.902 90.507 330.45 88.3356 328.621 86.5067V86.5067Z" stroke="#E63963" stroke-width="6.44516" stroke-linecap="round" stroke-linejoin="round"/>
<path d="M127 10.0458V25.8761C126.996 29.9558 128.654 33.8796 131.63 36.829C134.605 39.7784 138.668 41.5256 142.97 41.7063C144.47 45.7127 146.936 49.332 150.173 52.2765C153.41 55.221 157.327 57.4092 161.613 58.6672V71.1053H158.032C154.867 71.1053 151.831 72.2966 149.593 74.4171C147.354 76.5376 146.097 79.4137 146.097 82.4126C146.097 83.6121 146.6 84.7625 147.495 85.6108C148.39 86.459 149.605 86.9355 150.871 86.9355H189.065C190.331 86.9355 191.545 86.459 192.44 85.6108C193.336 84.7625 193.839 83.6121 193.839 82.4126C193.839 79.4137 192.581 76.5376 190.343 74.4171C188.105 72.2966 185.069 71.1053 181.903 71.1053H178.323V58.622C182.604 57.3686 186.518 55.1872 189.754 52.2509C192.99 49.3146 195.459 45.7043 196.966 41.7063C201.268 41.5256 205.33 39.7784 208.306 36.829C211.281 33.8796 212.94 29.9558 212.935 25.8761V10.0458C212.935 8.84629 212.432 7.69586 211.537 6.84765C210.642 5.99944 209.427 5.52292 208.161 5.52292H198.613C198.613 4.32337 198.11 3.17294 197.215 2.32473C196.319 1.47652 195.105 1 193.839 1H146.097C144.831 1 143.616 1.47652 142.721 2.32473C141.826 3.17294 141.323 4.32337 141.323 5.52292H131.774C130.508 5.52292 129.294 5.99944 128.398 6.84765C127.503 7.69586 127 8.84629 127 10.0458ZM198.613 32.6604V10.0458H208.161V25.8761C208.162 28.4827 207.212 31.0095 205.472 33.0288C203.732 35.0481 201.309 36.4359 198.613 36.9572V32.6604ZM181.903 75.6282C183.803 75.6282 185.624 76.343 186.967 77.6153C188.31 78.8876 189.065 80.6132 189.065 82.4126H150.871C150.871 80.6132 151.625 78.8876 152.968 77.6153C154.311 76.343 156.133 75.6282 158.032 75.6282H181.903ZM166.387 71.1053V59.5718C168.764 59.8733 171.172 59.8733 173.548 59.5718V71.1053H166.387ZM146.097 5.52292H193.839V32.6604C193.839 38.6582 191.324 44.4103 186.847 48.6514C182.37 52.8924 176.299 55.275 169.968 55.275C163.637 55.275 157.565 52.8924 153.088 48.6514C148.612 44.4103 146.097 38.6582 146.097 32.6604V5.52292ZM131.774 10.0458H141.323V36.9572C138.627 36.4359 136.204 35.0481 134.464 33.0288C132.724 31.0095 131.774 28.4827 131.774 25.8761V10.0458Z" fill="white" stroke="white" stroke-width="1.79032"/>
<path d="M137.742 331.452V309.968C137.742 301.421 141.137 293.224 147.181 287.181C153.224 281.137 161.421 277.742 169.968 277.742C178.515 277.742 186.711 281.137 192.755 287.181C198.798 293.224 202.194 301.421 202.194 309.968V331.452" stroke="white" stroke-width="6.44516" stroke-linecap="round" stroke-linejoin="round"/>
<path d="M202.194 335.032C202.194 336.931 201.439 338.753 200.096 340.096C198.753 341.439 196.932 342.193 195.032 342.193H191.452C189.552 342.193 187.731 341.439 186.388 340.096C185.045 338.753 184.29 336.931 184.29 335.032V324.29C184.29 322.391 185.045 320.569 186.388 319.226C187.731 317.883 189.552 317.129 191.452 317.129H202.194V335.032ZM137.742 335.032C137.742 336.931 138.496 338.753 139.839 340.096C141.182 341.439 143.004 342.193 144.903 342.193H148.484C150.383 342.193 152.205 341.439 153.548 340.096C154.891 338.753 155.645 336.931 155.645 335.032V324.29C155.645 322.391 154.891 320.569 153.548 319.226C152.205 317.883 150.383 317.129 148.484 317.129H137.742V335.032Z" stroke="white" stroke-width="6.44516" stroke-linecap="round" stroke-linejoin="round"/>
<path d="M32.2258 249.452V202.903L75.1936 195.742V242.29" stroke="#E63963" stroke-width="6.44516" stroke-linecap="round" stroke-linejoin="round"/>
<path d="M21.4839 260.194C27.4165 260.194 32.2258 255.384 32.2258 249.452C32.2258 243.519 27.4165 238.71 21.4839 238.71C15.5513 238.71 10.7419 243.519 10.7419 249.452C10.7419 255.384 15.5513 260.194 21.4839 260.194Z" stroke="#E63963" stroke-width="6.44516" stroke-linecap="round" stroke-linejoin="round"/>
<path d="M64.4517 253.032C70.3843 253.032 75.1936 248.223 75.1936 242.29C75.1936 236.358 70.3843 231.548 64.4517 231.548C58.519 231.548 53.7097 236.358 53.7097 242.29C53.7097 248.223 58.519 253.032 64.4517 253.032Z" stroke="#E63963" stroke-width="6.44516" stroke-linecap="round" stroke-linejoin="round"/>
<path d="M297.903 263.774C317.679 263.774 333.71 247.743 333.71 227.968C333.71 208.192 317.679 192.161 297.903 192.161C278.128 192.161 262.097 208.192 262.097 227.968C262.097 247.743 278.128 263.774 297.903 263.774Z" stroke="white" stroke-width="6.44516" stroke-linecap="round" stroke-linejoin="round"/>
<path d="M290.742 213.645L312.226 227.968L290.742 242.29V213.645Z" stroke="white" stroke-width="6.44516" stroke-linecap="round" stroke-linejoin="round"/>
</svg>
